<mxfile host="app.diagrams.net" agent="Mozilla/5.0 (Windows NT 10.0; Win64; x64) AppleWebKit/537.36 (KHTML, like Gecko) Chrome/134.0.0.0 Safari/537.36" version="26.1.3">
  <diagram name="Page-1" id="r4OwcooM9MHufOql8oAk">
    <mxGraphModel dx="2284" dy="746" grid="1" gridSize="10" guides="1" tooltips="1" connect="1" arrows="1" fold="1" page="1" pageScale="1" pageWidth="850" pageHeight="1100" math="0" shadow="0">
      <root>
        <mxCell id="0" />
        <mxCell id="1" parent="0" />
        <mxCell id="dsZfDyoM6tOfXrdp1oFX-1" value="&lt;font style=&quot;font-size: 20px;&quot;&gt;Responses&lt;/font&gt;" style="ellipse;whiteSpace=wrap;html=1;" vertex="1" parent="1">
          <mxGeometry x="390" y="230" width="120" height="80" as="geometry" />
        </mxCell>
        <mxCell id="dsZfDyoM6tOfXrdp1oFX-2" value="&lt;font style=&quot;font-size: 20px;&quot;&gt;Prompts&lt;/font&gt;" style="ellipse;whiteSpace=wrap;html=1;" vertex="1" parent="1">
          <mxGeometry x="-30" y="230" width="120" height="80" as="geometry" />
        </mxCell>
        <mxCell id="dsZfDyoM6tOfXrdp1oFX-3" value="&lt;font style=&quot;font-size: 20px;&quot;&gt;Latent space&lt;br&gt;with dim 128&lt;/font&gt;" style="ellipse;whiteSpace=wrap;html=1;" vertex="1" parent="1">
          <mxGeometry x="170" y="390" width="140" height="100" as="geometry" />
        </mxCell>
        <mxCell id="dsZfDyoM6tOfXrdp1oFX-5" value="" style="endArrow=classic;html=1;rounded=0;exitX=0.5;exitY=1;exitDx=0;exitDy=0;entryX=0.5;entryY=0;entryDx=0;entryDy=0;" edge="1" parent="1" source="dsZfDyoM6tOfXrdp1oFX-2" target="dsZfDyoM6tOfXrdp1oFX-8">
          <mxGeometry width="50" height="50" relative="1" as="geometry">
            <mxPoint x="90" y="480" as="sourcePoint" />
            <mxPoint y="440" as="targetPoint" />
          </mxGeometry>
        </mxCell>
        <mxCell id="dsZfDyoM6tOfXrdp1oFX-6" value="&lt;font style=&quot;font-size: 15px;&quot;&gt;Text Encoder&amp;nbsp;&lt;/font&gt;&lt;div&gt;&lt;font style=&quot;font-size: 15px;&quot;&gt;(sentense-T5-base)&lt;/font&gt;&lt;/div&gt;" style="text;html=1;align=center;verticalAlign=middle;whiteSpace=wrap;rounded=0;" vertex="1" parent="1">
          <mxGeometry x="-140" y="330" width="200" height="30" as="geometry" />
        </mxCell>
        <mxCell id="dsZfDyoM6tOfXrdp1oFX-8" value="&lt;span style=&quot;font-size: 20px;&quot;&gt;sentense embedding&lt;/span&gt;" style="ellipse;whiteSpace=wrap;html=1;" vertex="1" parent="1">
          <mxGeometry x="-40" y="390" width="140" height="100" as="geometry" />
        </mxCell>
        <mxCell id="dsZfDyoM6tOfXrdp1oFX-9" value="" style="endArrow=classic;html=1;rounded=0;exitX=1;exitY=0.5;exitDx=0;exitDy=0;entryX=0;entryY=0.5;entryDx=0;entryDy=0;" edge="1" parent="1" target="dsZfDyoM6tOfXrdp1oFX-3">
          <mxGeometry width="50" height="50" relative="1" as="geometry">
            <mxPoint x="100" y="440" as="sourcePoint" />
            <mxPoint x="240" y="440" as="targetPoint" />
          </mxGeometry>
        </mxCell>
        <mxCell id="dsZfDyoM6tOfXrdp1oFX-10" value="&lt;span style=&quot;font-size: 15px;&quot;&gt;MLP&lt;/span&gt;" style="text;html=1;align=center;verticalAlign=middle;whiteSpace=wrap;rounded=0;" vertex="1" parent="1">
          <mxGeometry x="100" y="410" width="70" height="30" as="geometry" />
        </mxCell>
        <mxCell id="dsZfDyoM6tOfXrdp1oFX-11" value="&lt;span style=&quot;font-size: 20px;&quot;&gt;sentense embedding&lt;/span&gt;" style="ellipse;whiteSpace=wrap;html=1;" vertex="1" parent="1">
          <mxGeometry x="380" y="390" width="140" height="100" as="geometry" />
        </mxCell>
        <mxCell id="dsZfDyoM6tOfXrdp1oFX-12" value="" style="endArrow=classic;html=1;rounded=0;exitX=0;exitY=0.5;exitDx=0;exitDy=0;entryX=1;entryY=0.5;entryDx=0;entryDy=0;" edge="1" parent="1" source="dsZfDyoM6tOfXrdp1oFX-11" target="dsZfDyoM6tOfXrdp1oFX-3">
          <mxGeometry width="50" height="50" relative="1" as="geometry">
            <mxPoint x="290" y="540" as="sourcePoint" />
            <mxPoint x="360" y="540" as="targetPoint" />
          </mxGeometry>
        </mxCell>
        <mxCell id="dsZfDyoM6tOfXrdp1oFX-13" value="&lt;span style=&quot;font-size: 15px;&quot;&gt;MLP&lt;/span&gt;" style="text;html=1;align=center;verticalAlign=middle;whiteSpace=wrap;rounded=0;" vertex="1" parent="1">
          <mxGeometry x="310" y="410" width="70" height="30" as="geometry" />
        </mxCell>
        <mxCell id="dsZfDyoM6tOfXrdp1oFX-14" value="&lt;font style=&quot;font-size: 15px;&quot;&gt;Text Encoder&amp;nbsp;&lt;/font&gt;&lt;div&gt;&lt;font style=&quot;font-size: 15px;&quot;&gt;(sentense-T5-base)&lt;/font&gt;&lt;/div&gt;" style="text;html=1;align=center;verticalAlign=middle;whiteSpace=wrap;rounded=0;" vertex="1" parent="1">
          <mxGeometry x="420" y="330" width="200" height="30" as="geometry" />
        </mxCell>
        <mxCell id="dsZfDyoM6tOfXrdp1oFX-15" value="" style="endArrow=classic;html=1;rounded=0;exitX=0.5;exitY=1;exitDx=0;exitDy=0;entryX=0.5;entryY=0;entryDx=0;entryDy=0;" edge="1" parent="1">
          <mxGeometry width="50" height="50" relative="1" as="geometry">
            <mxPoint x="450" y="310" as="sourcePoint" />
            <mxPoint x="450" y="390" as="targetPoint" />
          </mxGeometry>
        </mxCell>
        <mxCell id="dsZfDyoM6tOfXrdp1oFX-17" value="&lt;span style=&quot;font-size: 15px;&quot;&gt;Using contrastive learning (like CLIP) to align&lt;/span&gt;" style="text;html=1;align=center;verticalAlign=middle;whiteSpace=wrap;rounded=0;" vertex="1" parent="1">
          <mxGeometry x="140" y="350" width="200" height="30" as="geometry" />
        </mxCell>
        <mxCell id="dsZfDyoM6tOfXrdp1oFX-20" value="" style="curved=1;endArrow=classic;html=1;rounded=0;exitX=0.5;exitY=1;exitDx=0;exitDy=0;entryX=1;entryY=0.5;entryDx=0;entryDy=0;" edge="1" parent="1" source="dsZfDyoM6tOfXrdp1oFX-3" target="dsZfDyoM6tOfXrdp1oFX-1">
          <mxGeometry width="50" height="50" relative="1" as="geometry">
            <mxPoint x="440" y="370" as="sourcePoint" />
            <mxPoint x="490" y="320" as="targetPoint" />
            <Array as="points">
              <mxPoint x="560" y="580" />
              <mxPoint x="630" y="360" />
              <mxPoint x="610" y="310" />
            </Array>
          </mxGeometry>
        </mxCell>
      </root>
    </mxGraphModel>
  </diagram>
</mxfile>
